<svg xmlns="http://www.w3.org/2000/svg" height="48" viewBox="0 96 960 960" width="48"><path d="M522.239 991.435V914.13q44.522-6.239 86.544-24 42.021-17.76 80.543-46.043l53.109 56.109q-48.522 40.478-103.761 63.478t-116.435 27.761Zm281.196-154-55.109-53.348q27.283-35.761 45.044-76.424Q811.13 667 818.13 618h78.305q-7.522 64.478-31.641 120.457-24.12 55.978-61.359 98.978Zm14.935-304.196q-7.24-46.761-25-88.282-17.761-41.522-45.044-78.044l54.87-54.109q40.239 51.239 62.478 104.62 22.239 53.38 30.761 115.815H818.37ZM436.478 991.435Q277.239 975.348 170.402 856.75 63.565 738.152 63.565 576q0-160.717 106.837-279.076 106.837-118.359 266.076-137.359v77.544q-127.043 18.478-211.206 114.902Q141.109 448.435 141.109 576q0 127.804 84.163 224.348 84.163 96.543 211.206 113.782v77.305Zm253.848-684.044q-39.283-26.521-81.685-44.402-42.402-17.88-83.924-25.88v-77.544q57.479 7.761 113.718 30.5 56.239 22.739 104 60.978l-52.109 56.348ZM480 810.565q-92.283-78.282-136.804-145.304-44.522-67.022-44.522-124.544 0-86.043 55.022-136.684Q408.717 353.391 480 353.391t126.924 50.642q55.641 50.641 55.641 136.684 0 57.522-45.141 124.544Q572.283 732.283 480 810.565Zm0-227.804q21 0 35.38-14.381 14.381-14.38 14.381-35.619 0-19-14.381-33.881Q501 484 480 484q-20.239 0-34.5 14.88-14.261 14.881-14.261 33.881 0 21.239 14.261 35.619 14.261 14.381 34.5 14.381Z"/></svg>