<svg height="512pt" viewBox="-96 0 512 512" width="512pt" xmlns="http://www.w3.org/2000/svg"><path d="m261.855469 0h-204.136719c-31.824219 0-57.71875 25.894531-57.71875 57.71875v396.5625c0 31.824219 25.894531 57.71875 57.71875 57.71875h204.136719c31.828125 0 57.722656-25.894531 57.722656-57.71875v-396.5625c0-31.824219-25.894531-57.71875-57.722656-57.71875zm-57.421875 30.011719v14.839843h-89.292969v-14.839843zm85.132812 424.269531c0 15.277344-12.433594 27.707031-27.710937 27.707031h-204.136719c-15.277344 0-27.707031-12.429687-27.707031-27.707031v-396.5625c0-15.277344 12.429687-27.707031 27.707031-27.707031h27.410156v16.0625c0 15.875 12.914063 28.789062 28.789063 28.789062h91.742187c15.871094 0 28.785156-12.914062 28.785156-28.789062v-16.0625h27.410157c15.277343 0 27.707031 12.429687 27.707031 27.707031v396.5625zm0 0"/><path d="m189.238281 424.171875h-58.898437c-8.289063 0-15.007813 6.71875-15.007813 15.007813 0 8.285156 6.71875 15.003906 15.007813 15.003906h58.898437c8.289063 0 15.007813-6.71875 15.007813-15.003906 0-8.289063-6.71875-15.007813-15.007813-15.007813zm0 0"/><path d="m159.789062 157.003906c-54.625 0-99.070312 44.445313-99.070312 99.070313 0 54.628906 44.441406 99.070312 99.070312 99.070312 54.628907 0 99.070313-44.441406 99.070313-99.070312 0-54.625-44.441406-99.070313-99.070313-99.070313zm67.390626 84.03125h-18.902344c-.988282-14.523437-3.394532-28.242187-7.0625-40.175781 12.925781 9.71875 22.328125 23.871094 25.964844 40.175781zm-67.390626 84.050782c-1.414062-.609376-6.359374-4.757813-11.128906-17.800782-3.726562-10.1875-6.214844-22.710937-7.277344-36.238281h36.816407c-1.0625 13.527344-3.550781 26.050781-7.277344 36.238281-4.773437 13.042969-9.71875 17.191406-11.132813 17.800782zm-18.402343-84.050782c1.066406-13.503906 3.550781-26.003906 7.273437-36.171875 4.769532-13.046875 9.714844-17.191406 11.128906-17.800781 1.414063.609375 6.359376 4.753906 11.132813 17.800781 3.71875 10.167969 6.207031 22.667969 7.269531 36.171875zm-23.023438-40.175781c-3.667969 11.933594-6.074219 25.652344-7.0625 40.175781h-18.902343c3.640624-16.304687 13.039062-30.457031 25.964843-40.175781zm-25.976562 70.1875h18.910156c.984375 14.542969 3.394531 28.289063 7.070313 40.242187-12.945313-9.734374-22.355469-23.910156-25.980469-40.242187zm108.828125 40.246094c3.671875-11.957031 6.082031-25.699219 7.066406-40.246094h18.914062c-3.625 16.332031-13.035156 30.507813-25.980468 40.246094zm0 0"/></svg>